<?xml version="1.0" encoding="utf-8"?>
<!-- Generator: Adobe Illustrator 16.0.0, SVG Export Plug-In . SVG Version: 6.00 Build 0)  -->
<!DOCTYPE svg PUBLIC "-//W3C//DTD SVG 1.1//EN" "http://www.w3.org/Graphics/SVG/1.1/DTD/svg11.dtd">
<svg version="1.1" xmlns="http://www.w3.org/2000/svg" xmlns:xlink="http://www.w3.org/1999/xlink" x="0px" y="0px"
	 width="520.818px" height="71.398px" viewBox="0 0 520.818 71.398" enable-background="new 0 0 520.818 71.398"
	 xml:space="preserve">
<g id="pages">
</g>
<g id="Layer_1">
	<rect y="0.782" width="49.371" height="16.235"/>
	<rect x="16.569" y="0.782" width="16.232" height="68.68"/>
	<rect x="293.787" y="0.782" width="49.372" height="16.235"/>
	<rect x="310.356" y="0.782" width="16.232" height="68.68"/>
	<rect x="53.126" y="27.004" width="52.369" height="16.234"/>
	<rect x="53.125" y="0.782" width="16.233" height="68.68"/>
	<rect x="89.262" y="0.782" width="16.232" height="68.68"/>
	<rect x="180.592" y="27.004" width="52.369" height="16.234"/>
	<rect x="180.591" y="0.782" width="16.233" height="68.68"/>
	<rect x="216.728" y="0.782" width="16.233" height="68.68"/>
	<rect x="109.249" y="27.004" width="38.182" height="16.234"/>
	<rect x="109.249" y="0.782" width="48.373" height="16.235"/>
	<rect x="109.249" y="53.226" width="49.372" height="16.236"/>
	<rect x="109.249" y="0.782" width="16.232" height="68.68"/>
	<path d="M265.94,0c-19.422,0-35.167,15.744-35.167,35.167c0,19.422,15.745,35.167,35.167,35.167s35.167-15.745,35.167-35.167
		C301.107,15.744,285.362,0,265.94,0 M265.94,54.348c-10.594,0-19.182-8.587-19.182-19.181c0-10.594,8.588-19.183,19.182-19.183
		c10.594,0,19.182,8.589,19.182,19.183C285.122,45.761,276.534,54.348,265.94,54.348"/>
	<rect x="363.89" y="1.038" width="16.421" height="69.476"/>
	<path d="M417.63,0.248c-19.647,0-35.575,15.927-35.575,35.575c0,19.647,15.928,35.575,35.575,35.575
		c19.648,0,35.575-15.928,35.575-35.575C453.205,16.175,437.278,0.248,417.63,0.248 M417.63,55.228
		c-10.717,0-19.405-8.688-19.405-19.405s8.688-19.405,19.405-19.405s19.405,8.688,19.405,19.405S428.347,55.228,417.63,55.228"/>
	<path d="M485.243,0.248c-19.648,0-35.576,15.927-35.576,35.575c0,19.647,15.928,35.575,35.576,35.575
		c19.647,0,35.575-15.928,35.575-35.575C520.818,16.175,504.891,0.248,485.243,0.248 M485.243,55.228
		c-10.717,0-19.405-8.688-19.405-19.405s8.688-19.405,19.405-19.405s19.404,8.688,19.404,19.405S495.96,55.228,485.243,55.228"/>
</g>
<g id="chart_icons">
</g>
</svg>
