<?xml version="1.0" encoding="utf-8"?>
<!-- Generator: Adobe Illustrator 16.0.0, SVG Export Plug-In . SVG Version: 6.00 Build 0)  -->
<!DOCTYPE svg PUBLIC "-//W3C//DTD SVG 1.1//EN" "http://www.w3.org/Graphics/SVG/1.1/DTD/svg11.dtd">
<svg version="1.1" id="Layer_1" xmlns="http://www.w3.org/2000/svg" xmlns:xlink="http://www.w3.org/1999/xlink" x="0px" y="0px"
	 width="455.133px" height="94.711px" viewBox="0 0 455.133 94.711" enable-background="new 0 0 455.133 94.711"
	 xml:space="preserve">
<rect x="70.107" y="28.859" fill="#231F20" width="21.318" height="64.831"/>
<rect x="95.834" y="3.51" fill="#231F20" width="21.312" height="90.18"/>
<rect x="121.557" y="3.51" fill="#231F20" width="21.312" height="90.18"/>
<path fill="#231F20" d="M372.268,35.545v-6.686h-21.315v64.831h21.315V62.792c0-7.949,4.154-12.237,11.728-12.237h2.522V28.229
	C380.086,28.482,375.418,30.5,372.268,35.545z"/>
<path fill="#231F20" d="M80.764,0c-6.822,0-12.359,5.535-12.359,12.361c0,6.826,5.537,12.363,12.359,12.363
	c6.828,0,12.361-5.537,12.361-12.363C93.125,5.535,87.592,0,80.764,0z"/>
<path fill="#231F20" d="M325.221,33.795c-2.996-3.268-9.967-5.965-15.26-5.965c-16.098,0-27.646,10.613-30.473,26.389
	c-3.082-15.135-16.273-26.78-32.359-26.78c-16.24,0-29.537,11.781-32.444,27.2c-2.822-16.026-15.428-26.648-31.061-26.648
	c-5.801,0-10.596,1.262-14.76,4.16V3.521h-21.312V93.7h20.938V87.77c5.045,4.668,10.467,6.812,17.154,6.812
	c14.398,0,26.52-11.271,29.113-26.807c3.055,15.203,16.169,26.76,32.373,26.76c16.065,0,28.949-11.312,32.228-26.125
	c2.711,16.18,15.531,26.301,30.854,26.301c5.293,0,11.099-1.771,15.009-4.668V93.7h21.312V65.327c0-1.164-0.008-2.298-0.031-3.406
	c0.023-1.108,0.031-2.241,0.031-3.405V28.969h-21.312V33.795z M181.355,73.948c-6.826,0-12.359-5.535-12.359-12.363
	c0-6.824,5.533-12.358,12.359-12.358c6.824,0,12.359,5.534,12.359,12.358C193.715,68.413,188.18,73.948,181.355,73.948z
	 M247.129,72.958c-6.822,0-12.361-5.539-12.361-12.363c0-6.823,5.539-12.358,12.361-12.358c6.824,0,12.359,5.535,12.359,12.358
	C259.489,67.418,253.956,72.958,247.129,72.958z M311.176,73.35c-6.826,0-12.354-5.539-12.354-12.363
	c0-6.823,5.527-12.358,12.354-12.358c6.832,0,12.359,5.535,12.359,12.358C323.536,67.811,318.008,73.35,311.176,73.35z"/>
<path fill="#231F20" d="M433.815,3.5v28.631c-4.156-2.9-8.949-4.16-14.757-4.16c-17.782,0-31.654,13.746-31.654,33.55
	c0,18.664,13.368,33.043,29.642,33.043c6.68,0,12.103-2.146,17.152-6.811v5.928h20.938V3.5H433.815z M421.262,73.788
	c-6.817,0-12.354-5.539-12.354-12.358c0-6.828,5.535-12.365,12.354-12.365c6.828,0,12.363,5.537,12.363,12.365
	C433.625,68.249,428.09,73.788,421.262,73.788z"/>
<path fill="#231F20" d="M36.072,27.99c-5.803,0-10.594,1.262-14.76,4.16V3.521H0V93.7h20.936V87.77
	c5.045,4.668,10.469,6.812,17.156,6.812c16.268,0,29.637-14.383,29.637-33.047C67.729,41.738,53.855,27.99,36.072,27.99z
	 M33.803,73.948c-6.824,0-12.359-5.535-12.359-12.363c0-6.824,5.535-12.358,12.359-12.358c6.826,0,12.359,5.534,12.359,12.358
	C46.162,68.413,40.629,73.948,33.803,73.948z"/>
</svg>
